<mxfile host="app.diagrams.net" modified="2024-04-20T06:27:24.716Z" agent="Mozilla/5.0 (Windows NT 10.0; Win64; x64) AppleWebKit/537.36 (KHTML, like Gecko) Chrome/123.0.0.0 Safari/537.36" version="24.2.7" etag="k1dW_n3tOA7IXMPMncpK" type="github">
  <diagram name="Page-1" id="vWxjzv6cepZXbINL1rs-">
    <mxGraphModel>
      <root>
        <mxCell id="0" />
        <mxCell id="1" parent="0" />
      </root>
    </mxGraphModel>
  </diagram>
</mxfile>
